<svg xmlns="http://www.w3.org/2000/svg" xmlns:xlink="http://www.w3.org/1999/xlink" width="500" zoomAndPan="magnify" viewBox="0 0 375 374.999991" height="500" preserveAspectRatio="xMidYMid meet" version="1.0"><defs><clipPath id="c78977b8aa"><path d="M 132 136 L 252.28125 136 L 252.28125 228.910156 L 132 228.910156 Z M 132 136 " clip-rule="nonzero"/></clipPath><clipPath id="bffdd0b3eb"><path d="M 122.53125 119 L 246 119 L 246 196 L 122.53125 196 Z M 122.53125 119 " clip-rule="nonzero"/></clipPath><clipPath id="44a9ecdfb7"><path d="M 148 78.910156 L 167 78.910156 L 167 132 L 148 132 Z M 148 78.910156 " clip-rule="nonzero"/></clipPath></defs><g clip-path="url(#c78977b8aa)"><path fill="#31373e" d="M 215.101562 179.933594 C 215.570312 176.941406 217.648438 173.964844 221.027344 173.183594 C 225.449219 172.664062 226.976562 176.707031 226.667969 179.742188 C 226.574219 180.648438 226.335938 181.53125 225.960938 182.359375 C 225.984375 182.210938 226.019531 182.074219 226.035156 181.925781 C 226.351562 178.886719 224.808594 174.847656 220.386719 175.359375 L 220.378906 175.355469 C 217.839844 175.949219 216.035156 177.785156 215.101562 179.933594 Z M 223.101562 199.101562 L 223.09375 199.109375 C 223.105469 199.140625 223.121094 199.167969 223.140625 199.199219 C 224.070312 196.621094 226.292969 194.011719 229.082031 193.160156 C 230.878906 192.828125 231.882812 193.472656 232.34375 194.492188 C 232.367188 194.449219 232.382812 194.40625 232.394531 194.363281 C 233.324219 191.707031 232.964844 188.28125 229.253906 188.976562 C 224.832031 190.3125 221.863281 196.070312 223.101562 199.101562 Z M 236.019531 173.625 C 238.433594 173.023438 239.664062 174.976562 240.042969 177.257812 C 240.167969 176.722656 240.257812 176.175781 240.3125 175.628906 C 240.585938 172.570312 239.488281 168.625 236.183594 169.429688 C 232.863281 170.785156 231.234375 175.867188 231.835938 179.511719 C 232.433594 176.929688 233.878906 174.492188 236.019531 173.625 Z M 213.082031 196.011719 L 213.09375 196.011719 C 215.878906 195.800781 217.375 196.890625 218.011719 198.355469 C 218.132812 198.082031 218.234375 197.804688 218.320312 197.519531 C 219.082031 194.9375 218.011719 191.464844 213.261719 191.824219 C 207.734375 192.753906 205.375 197.898438 206.671875 200.871094 C 207.601562 198.660156 209.769531 196.574219 213.082031 196.011719 Z M 237.046875 151.800781 L 237.054688 151.808594 C 239.59375 150.925781 241.503906 154.617188 242.046875 157.519531 C 242.296875 158.808594 242.335938 160.132812 242.15625 161.433594 C 242.863281 159.988281 243.140625 157.789062 242.683594 155.339844 C 242.140625 152.433594 240.234375 148.742188 237.695312 149.628906 C 236.566406 150.273438 235.945312 151.671875 235.714844 153.328125 C 236 152.699219 236.460938 152.164062 237.046875 151.800781 Z M 252.257812 163.8125 C 252.257812 199.761719 223.25 228.890625 187.460938 228.890625 C 164.394531 228.890625 144.160156 216.773438 132.691406 198.539062 C 134.132812 199.980469 141.914062 207.371094 142.402344 207.179688 C 142.796875 206.164062 140.898438 204.929688 140.75 204.03125 C 140.539062 202.792969 142.109375 203.410156 142.511719 204.003906 C 143.105469 204.882812 143.59375 205.808594 144.292969 206.640625 C 145.636719 208.242188 147.339844 209.960938 149.351562 210.667969 C 151.277344 211.34375 151.148438 209.671875 150.207031 207.824219 C 149.667969 206.757812 149.03125 205.65625 149.355469 204.417969 C 149.699219 203.074219 151.082031 202.8125 152.277344 202.84375 C 153.9375 202.875 155.765625 203.308594 157.371094 203.753906 C 159.492188 204.34375 161.820312 205.570312 164.03125 205.613281 C 166.597656 205.667969 168.929688 204.511719 171.523438 205.269531 C 174.949219 206.273438 176.378906 208.863281 180.375 207.652344 C 183.3125 206.757812 184.636719 205.441406 187.835938 206.296875 C 191.65625 207.316406 193.152344 207.828125 196.984375 206.425781 C 199.964844 205.335938 202.945312 204.050781 206.042969 205.585938 C 209.316406 207.214844 210.714844 205.992188 213.59375 204.070312 C 216.5625 202.101562 218.398438 202.976562 221.519531 203.714844 C 224.445312 204.414062 225.683594 201.882812 228.351562 200.96875 C 229.589844 200.546875 231.660156 200.765625 232.558594 199.683594 C 233.734375 198.269531 233.824219 194.015625 234.46875 192.152344 C 235.117188 190.285156 235.601562 188.136719 236.875 186.574219 C 238.195312 184.933594 240.277344 184.128906 241.253906 182.128906 C 242.898438 178.699219 241.128906 174.1875 241.359375 170.59375 C 241.640625 166.402344 246.003906 164.375 245.890625 160.058594 C 245.777344 155.328125 241.851562 149.597656 244.289062 145.082031 C 245.253906 143.285156 246.144531 142.777344 246.234375 140.527344 C 246.289062 139.117188 245.949219 137.566406 246.125 136.125 C 250.179688 144.785156 252.273438 154.242188 252.257812 163.808594 Z M 210.886719 212.355469 C 211.683594 215.570312 217.9375 213.496094 220.585938 209.140625 C 221.859375 207.039062 221.914062 204.308594 218.035156 204.800781 C 213.628906 205.777344 210.269531 209.875 210.886719 212.355469 Z M 195.886719 213.335938 C 197.402344 217.054688 204.664062 215.707031 206.53125 211.351562 C 207.53125 209.03125 206.128906 206.605469 202.113281 206.726562 C 196.988281 207.300781 194.964844 211.085938 195.886719 213.335938 Z M 188.316406 221.871094 C 189.117188 224.601562 195.125 224.222656 196.75 221.34375 C 197.617188 219.816406 196.484375 218.171875 193.15625 218.164062 C 189.371094 218.410156 187.902344 220.476562 188.316406 221.871094 Z M 180.742188 213.351562 C 183.246094 217.195312 190.316406 216.453125 191.101562 212.269531 C 191.46875 210.308594 189.964844 207.445312 185.472656 207.207031 C 180.847656 207.332031 179 210.6875 180.742188 213.351562 Z M 176.921875 221.683594 C 179.421875 224.269531 184.6875 224.191406 184.75 221.570312 C 184.78125 220.285156 183.199219 218.335938 179.636719 218.027344 C 179.492188 218.027344 179.296875 218.027344 179.15625 218.027344 C 176.296875 218.074219 175.191406 219.890625 176.921875 221.683594 Z M 168.070312 213.054688 C 171.730469 216.460938 177.066406 215.804688 176.859375 211.949219 C 176.753906 209.996094 174.695312 206.992188 170.464844 206.433594 C 170.296875 206.433594 170.070312 206.402344 169.902344 206.402344 C 165.875 206.386719 164.863281 210.054688 168.070312 213.054688 Z M 157.644531 212.558594 C 161.046875 214.492188 163.425781 213.457031 162.515625 210.445312 C 161.917969 208.460938 159.421875 205.265625 155.726562 204.386719 C 155.164062 204.257812 154.574219 204.265625 154.011719 204.402344 C 151.082031 205.265625 153.226562 210.070312 157.644531 212.558594 Z M 157.113281 218.839844 C 157.035156 218.71875 156.90625 218.53125 154.972656 216.9375 C 151.738281 214.269531 149.359375 212.535156 147.90625 211.785156 C 147.488281 211.601562 147.417969 211.585938 147.285156 211.621094 C 146.839844 212.496094 155.421875 218.503906 157.101562 218.890625 Z M 163.523438 219.339844 C 162.25 217.964844 159.355469 215.621094 156.613281 214.820312 C 156.277344 214.746094 155.648438 214.613281 155.339844 214.820312 C 153.792969 215.886719 161.390625 220.980469 163.96875 221.195312 C 165.25 221.300781 163.953125 219.804688 163.523438 219.339844 Z M 170.695312 222.390625 C 173.6875 223.398438 174.71875 222.433594 173.992188 220.914062 C 173.371094 219.59375 171.019531 217.507812 167.804688 216.945312 C 167.386719 216.902344 166.613281 216.824219 166.035156 217.070312 C 164.027344 217.9375 166.78125 221.0625 170.695312 222.390625 Z M 176.84375 226.035156 C 176.03125 225.769531 176.03125 225.769531 175.449219 225.539062 C 170.699219 223.679688 170.699219 223.679688 169.441406 223.394531 C 168.890625 223.300781 168.628906 223.277344 168.535156 223.414062 C 168.605469 223.804688 170.371094 224.613281 173.507812 225.351562 L 174.886719 225.664062 C 175.472656 225.78125 176.261719 225.921875 176.84375 226.035156 Z M 182.417969 226.269531 L 182.414062 226.269531 C 182.027344 225.917969 180.363281 224.851562 177.847656 224.5625 C 177.519531 224.539062 176.644531 224.480469 176.335938 224.75 C 175.371094 225.601562 180.578125 226.800781 182.351562 226.707031 C 182.496094 226.699219 182.871094 226.679688 182.417969 226.269531 Z M 186.410156 225.003906 L 186.40625 225.003906 C 184.082031 225.027344 183.746094 225.78125 183.808594 226.042969 C 184.046875 226.972656 188.695312 227.28125 189.335938 226.421875 C 189.707031 225.917969 188.730469 225.089844 186.410156 225.003906 Z M 195.90625 224.734375 L 195.902344 224.734375 C 193.429688 224.964844 191.742188 225.957031 191.496094 226.441406 C 191.066406 227.304688 195.683594 226.457031 196.835938 225.976562 C 197.113281 225.871094 197.375 225.722656 197.597656 225.527344 C 197.972656 225.167969 197.84375 224.636719 195.90625 224.734375 Z M 204.988281 223.652344 C 202.277344 224.179688 197.871094 226.179688 197.871094 226.195312 C 199.109375 225.972656 200.785156 225.640625 202.027344 225.375 C 202.46875 225.261719 203.019531 225.125 203.683594 224.914062 C 205.164062 224.433594 205.847656 224.023438 206 223.816406 C 206.242188 223.445312 205.296875 223.59375 204.988281 223.652344 Z M 206.601562 217.144531 C 202.640625 217.761719 200.054688 220.367188 200.085938 221.816406 C 200.128906 224.097656 205.84375 222.5625 208.378906 220.070312 L 208.664062 219.757812 C 209.769531 218.503906 209.855469 216.859375 206.601562 217.144531 Z M 217.894531 217.929688 C 218.585938 217.421875 219.195312 216.804688 219.691406 216.101562 C 219.976562 215.644531 220.425781 214.613281 218.453125 215.027344 C 214.738281 216.082031 210.570312 219.878906 210.53125 221.003906 C 210.488281 222.203125 215.191406 220.070312 217.894531 217.929688 Z M 227.742188 212 C 227.601562 211.945312 227.519531 211.972656 227.125 212.132812 C 224.539062 213.40625 218.355469 218.550781 217.992188 219.085938 L 218.019531 219.140625 C 218.609375 219.035156 221.878906 217.140625 224.496094 215.179688 C 226.195312 213.9375 227.90625 212.40625 227.742188 212 Z M 231.816406 204.988281 C 232.78125 203.308594 233.304688 201.058594 230.785156 201.742188 C 226.886719 203.21875 223.046875 208.8125 223.507812 210.671875 C 224.007812 212.695312 228.695312 209.5 231.1875 205.96875 C 231.390625 205.675781 231.644531 205.292969 231.816406 204.988281 Z M 239.5 197.847656 L 239.5 197.863281 C 236.816406 199.746094 231.890625 206.972656 232.09375 207.871094 C 232.261719 208.609375 235.519531 205.390625 237.894531 202.152344 C 239.027344 200.605469 239.855469 199.191406 240.109375 198.375 C 240.453125 197.308594 239.785156 197.6875 239.5 197.847656 Z M 240.976562 185.054688 L 240.972656 185.066406 C 237.261719 187.066406 234.59375 194.523438 235.714844 196.589844 C 236.757812 198.539062 240.449219 194.960938 242.1875 190.300781 C 243.363281 187.113281 243.242188 184.207031 240.976562 185.054688 Z M 244.179688 178.539062 L 244.175781 178.558594 C 245.722656 180.351562 248.066406 176.195312 248.421875 171.015625 C 248.636719 167.917969 248.019531 164.046875 245.980469 165.085938 C 243.214844 167.203125 242.355469 176.433594 244.179688 178.539062 Z M 248.589844 180.773438 L 248.585938 180.792969 C 248.609375 179.898438 248.21875 180.261719 248.03125 180.4375 C 245.929688 182.914062 242.898438 192.191406 243.429688 192.832031 C 243.851562 193.332031 245.878906 189.574219 247.308594 185.652344 C 248.226562 183.121094 248.574219 181.476562 248.589844 180.773438 Z M 248.785156 150.28125 L 248.765625 150.300781 C 247.972656 146.984375 246.402344 143.992188 245.246094 144.933594 C 243.472656 147.320312 245.910156 157.230469 247.921875 158.167969 C 249.402344 158.835938 249.832031 154.710938 248.785156 150.28125 Z M 251.425781 165.921875 C 251.515625 163.886719 251.53125 160.320312 251.050781 159.890625 C 250.949219 159.890625 250.921875 159.933594 250.824219 160.125 C 250.050781 162.214844 249.359375 173.730469 250.246094 174.070312 C 250.765625 173.5 251.261719 169.394531 251.425781 165.902344 Z M 159.554688 195.695312 C 159.941406 195.683594 160.328125 195.695312 160.714844 195.734375 C 163.605469 196.261719 165.988281 198.316406 166.933594 201.105469 C 167.320312 200.390625 167.507812 199.582031 167.464844 198.765625 C 167.40625 196.265625 165.320312 192.375 160.878906 191.550781 C 160.496094 191.511719 160.109375 191.496094 159.726562 191.511719 C 156.558594 191.765625 155.34375 194.640625 156.382812 197.601562 C 156.972656 196.550781 158.035156 195.820312 159.554688 195.695312 Z M 194.941406 197.382812 C 198.1875 197.429688 199.960938 198.964844 200.675781 200.726562 C 200.882812 200.304688 201.035156 199.855469 201.132812 199.394531 C 201.636719 196.863281 200.109375 193.273438 195.113281 193.199219 C 189.691406 193.621094 187.6875 198.019531 188.925781 201.132812 C 189.785156 199.226562 191.773438 197.621094 194.941406 197.382812 Z M 176.683594 197.199219 C 180.160156 197.542969 182.105469 199.554688 182.855469 201.585938 C 183.152344 201.007812 183.328125 200.375 183.378906 199.726562 C 183.597656 197.226562 181.714844 193.488281 176.855469 193.007812 C 172.15625 192.988281 170.160156 196.632812 171.417969 199.941406 C 172.253906 198.34375 174.035156 197.1875 176.683594 197.199219 Z M 176.683594 197.199219 " fill-opacity="1" fill-rule="nonzero"/></g><path fill="#0c6980" d="M 153.390625 108.566406 L 153.347656 115.847656 C 152.585938 116.023438 151.824219 116.207031 151.058594 116.402344 C 147.136719 117.378906 143.28125 118.613281 139.511719 120.089844 C 143.585938 115.625 148.253906 111.746094 153.390625 108.566406 Z M 187.414062 98.910156 C 175.859375 98.890625 164.511719 101.984375 154.5625 107.863281 L 154.535156 115.585938 C 168.589844 112.589844 183.066406 113.015625 196.796875 115.433594 C 211.695312 117.957031 226.277344 122.527344 239.675781 129.378906 C 240.980469 130.042969 242.265625 130.738281 243.546875 131.441406 C 232.328125 112.007812 211.421875 98.910156 187.414062 98.910156 Z M 187.414062 98.910156 " fill-opacity="1" fill-rule="nonzero"/><g clip-path="url(#bffdd0b3eb)"><path fill="#006630" d="M 245.871094 135.835938 C 241.324219 134.59375 236.585938 133.917969 230.085938 133.582031 C 212.21875 132.652344 176.21875 130.171875 148.445312 162.746094 C 140.863281 171.644531 134.742188 183.363281 130.652344 195.320312 C 125.316406 185.703125 122.523438 174.886719 122.53125 163.886719 L 122.53125 163.589844 C 122.609375 146.78125 133.328125 131.726562 149.035156 125.785156 C 150.441406 125.25 151.859375 124.757812 153.300781 124.304688 L 153.277344 128.128906 C 150.328125 128.417969 148.308594 129.003906 148.308594 129.675781 C 148.308594 130.636719 152.394531 131.417969 157.441406 131.417969 C 162.484375 131.417969 166.570312 130.636719 166.570312 129.675781 C 166.570312 128.714844 162.484375 127.933594 157.441406 127.933594 C 156.410156 127.933594 155.421875 127.964844 154.496094 128.027344 L 154.496094 123.917969 C 167.710938 119.867188 181.945312 119.199219 196.046875 120.765625 C 206.214844 121.84375 216.242188 123.964844 225.980469 127.085938 C 230.226562 128.457031 234.421875 130.003906 238.53125 131.796875 C 240.890625 132.820312 243.210938 133.933594 245.515625 135.09375 C 245.632812 135.332031 245.75 135.59375 245.871094 135.835938 Z M 245.871094 135.835938 " fill-opacity="1" fill-rule="nonzero"/></g><path fill="#0c6980" d="M 175.179688 88.375 C 171.867188 91.738281 167.089844 91.523438 163.828125 89.980469 C 160.421875 88.683594 157.660156 89.003906 154.851562 90.695312 C 155.355469 88.851562 155.628906 86.953125 155.675781 85.042969 C 155.746094 82.851562 155.402344 80.960938 154.660156 79.789062 C 159.25 79.292969 163.519531 81.84375 166.035156 84.871094 C 168.550781 87.894531 171.230469 89.839844 175.179688 88.375 Z M 175.179688 88.375 " fill-opacity="1" fill-rule="nonzero"/><g clip-path="url(#44a9ecdfb7)"><path fill="#31373e" d="M 166.570312 129.6875 C 166.570312 130.644531 162.484375 131.425781 157.441406 131.425781 C 152.394531 131.425781 148.308594 130.644531 148.308594 129.6875 C 148.308594 129.011719 150.328125 128.425781 153.277344 128.136719 L 153.300781 124.3125 L 153.347656 115.851562 L 153.390625 108.570312 L 153.566406 78.933594 L 154.65625 78.933594 L 154.65625 79.785156 L 154.566406 107.859375 L 154.539062 115.582031 L 154.511719 123.925781 L 154.511719 128.035156 C 155.441406 127.972656 156.425781 127.941406 157.457031 127.941406 C 162.484375 127.945312 166.570312 128.722656 166.570312 129.6875 Z M 166.570312 129.6875 " fill-opacity="1" fill-rule="nonzero"/></g></svg>